<svg width="92" height="32" fill="none" xmlns="http://www.w3.org/2000/svg">
  <path fill-rule="evenodd" clip-rule="evenodd" d="M.59 18.54a10.87 10.87 0 1121.74 0 10.87 10.87 0 01-21.74 0z" fill="#00ADEE"/>
  <path fill-rule="evenodd" clip-rule="evenodd" d="M15.54 28.62l-4.07-2.49v-3.77l3.4-2.47 3.96.9.8 4.93-4.1 2.9zM22.26 17.32l-3.43 3.46-3.96-.89-1.3-4 2.45-3.77 4.82.93 1.42 4.27zM7.76 28.77l3.69-2.64v-3.77l-3.4-2.47-3.97.9-.6 5.14 4.28 2.84z" fill="#fff"/>
  <path fill-rule="evenodd" clip-rule="evenodd" d="M.66 17.27l3.42 3.51 3.97-.89 1.3-4-2.45-3.77-4.81.9-1.43 4.25z" fill="#fff"/>
  <path fill-rule="evenodd" clip-rule="evenodd" d="M9.35 7.88L6.9 12.13l2.45 3.77h4.22l2.45-3.78-2.45-4.24H9.35z" fill="#fff"/>
  <path d="M1.55 12.8a11.38 11.38 0 00-1.47 4.4v.01a11.41 11.41 0 007.54 12.13 11.4 11.4 0 0012.49-3.29 11.41 11.41 0 002.73-8.78v-.02c-.08-.75-.24-1.49-.47-2.2l6.16-6.15a.59.59 0 10-.83-.83l-5.79 5.79a11.44 11.44 0 00-7.16-6.3l4.13-4.12a.59.59 0 00-.83-.83l-4.64 4.64A11.48 11.48 0 001.55 12.8zm5.07-.03l2.08 3.21-1.1 3.41-2.64.6-.69.15-3-3.08c.2-1.25.6-2.44 1.2-3.5l4.15-.79zm7.6 3.21l2.08-3.2 4.16.8c.6 1.07 1 2.27 1.18 3.53l-3 3.03-3.32-.75-.74-2.27-.37-1.14zm5.77 8.3l-.53-3.3 2.28-2.3c-.03 2.07-.67 4-1.75 5.6zm-6.85-7.8l1.04 3.19-2.71 1.97-2.71-1.97 1.03-3.19h3.35zM1.17 18.63L3.47 21l-.4 3.49a10.23 10.23 0 01-1.9-5.85zm2.93 7.09l.52-4.46 1.26-.28 2.04-.46 2.94 2.14v3.17l-3.18 2.28a10.32 10.32 0 01-3.58-2.39zm4.98 2.83l2.4-1.72 2.68 1.64a10.26 10.26 0 01-5.08.08zm6.5-.59l-3.53-2.16v-3.14l2.08-1.5.87-.64 3.32.75.68 4.26a10.33 10.33 0 01-3.42 2.43zm3.98-15.75l-3.17-.61-1.6-2.8c1.9.66 3.55 1.85 4.77 3.4zM13.2 8.4l2.13 3.7-2.08 3.2H9.67l-2.09-3.2 2.14-3.7a10.3 10.3 0 013.48 0zm-5.07.4l-1.6 2.79-3.16.59a10.33 10.33 0 014.76-3.38z" fill="#334382"/>
  <path d="M21.93 8.9l7.9-7.9A.59.59 0 1029 .17l-7.9 7.9a.59.59 0 00.83.83zM20.26 1.82a.59.59 0 00.6-.59.59.59 0 00-.6-.59.59.59 0 000 1.18z" fill="#334382"/>
  <path d="M38.88 26.43c-1 0-1.9-.17-2.66-.53a4.15 4.15 0 01-1.78-1.46 3.96 3.96 0 01-.62-2.2c0-.71.14-1.35.43-1.93.3-.57.7-1.03 1.2-1.37a3 3 0 011.68-.5c.56 0 1.03.14 1.41.43.39.27.63.66.72 1.15-.83 0-1.5.23-1.99.68-.5.43-.74 1.02-.74 1.77 0 .69.2 1.24.62 1.66.42.41.97.62 1.66.62.85 0 1.54-.28 2.09-.84.56-.57.84-1.3.84-2.16a4 4 0 00-.63-2.13 20.1 20.1 0 00-1.87-2.45 22.3 22.3 0 01-1.97-2.55 4.49 4.49 0 01-.65-2.35c0-.83.24-1.57.7-2.23a4.7 4.7 0 011.92-1.58A6.4 6.4 0 0142 7.88c1.3 0 2.33.3 3.1.91.78.61 1.17 1.43 1.17 2.45 0 .67-.17 1.22-.5 1.63-.34.42-.78.63-1.32.63-.61 0-1.1-.25-1.47-.75a2.64 2.64 0 00.98-2.04c0-.51-.14-.92-.45-1.22-.3-.3-.72-.46-1.25-.46-.64 0-1.16.23-1.58.7a2.5 2.5 0 00-.6 1.73c0 .64.18 1.24.55 1.8.37.54.95 1.24 1.73 2.1.64.7 1.15 1.29 1.54 1.78a7 7 0 011 1.73 5.03 5.03 0 01-.43 4.87 5.75 5.75 0 01-2.33 1.97 7.3 7.3 0 01-3.26.72zm9.63-13.32h3.46l-.39 1.8a4.17 4.17 0 012.81-1.03c.9 0 1.6.3 2.14.89.53.59.79 1.56.79 2.9 0 1.27-.18 2.55-.55 3.84a7.73 7.73 0 01-1.87 3.29 4.66 4.66 0 01-3.48 1.34c-1.03 0-1.7-.28-2.04-.86l-1.25 5.86-3.63.86 4.01-18.89zm2.16 10.95c.77 0 1.4-.36 1.9-1.08.51-.72.88-1.58 1.1-2.57.24-1.01.36-1.95.36-2.81 0-1.33-.4-2-1.2-2-.29 0-.58.11-.89.32-.28.2-.54.5-.76.86l-1.42 6.72c.13.37.43.56.91.56zm10.75 2.04c-1.19 0-2.12-.3-2.81-.92-.69-.6-1.03-1.56-1.03-2.88 0-1.08.22-2.3.67-3.62a8.47 8.47 0 012.16-3.43c1-.98 2.24-1.47 3.74-1.47 2.05 0 3.08 1.28 3.08 3.84v.03l.26.02c.53 0 1.14-.13 1.82-.4a9.55 9.55 0 001.88-1.04l.21.65c-.46.5-1.07.92-1.82 1.27a9.5 9.5 0 01-2.43.72 10.87 10.87 0 01-.98 3.82 6.48 6.48 0 01-2.04 2.52c-.83.59-1.74.89-2.71.89zm.96-2.16c.38 0 .77-.22 1.15-.65.38-.45.72-1.05 1-1.8.3-.77.5-1.62.63-2.55-.43-.1-.65-.43-.65-1 0-.66.25-1.1.75-1.3a2.38 2.38 0 00-.24-1.08c-.13-.2-.35-.31-.67-.31-.53 0-1.04.38-1.54 1.15-.5.77-.9 1.69-1.2 2.76-.3 1.07-.46 2.02-.46 2.83 0 .77.1 1.29.27 1.56.17.26.5.39.96.39zM70.09 14h3.46l-.31 1.49a10 10 0 011.46-1.1c.45-.26.93-.39 1.44-.39.51 0 .91.18 1.2.53.3.35.46.77.46 1.27 0 .46-.16.87-.46 1.22-.3.36-.73.53-1.27.53-.35 0-.6-.08-.72-.24-.11-.17-.2-.42-.27-.74a2.2 2.2 0 00-.14-.46c-.05-.1-.14-.14-.26-.14-.34 0-.63.07-.87.21-.22.13-.52.36-.89.7L71 26h-3.45l2.54-12zm9.77 12.14c-.77 0-1.4-.24-1.87-.72-.47-.48-.7-1.2-.7-2.16 0-.4.07-.92.2-1.56l1.43-6.74h-.79l.2-.96h.79l.72-3.31 3.55-.48-.82 3.79h1.44l-.19.96h-1.44l-1.54 7.2c-.06.24-.1.5-.1.77 0 .32.08.55.22.7.16.12.42.19.77.19.47 0 .9-.2 1.3-.58.4-.4.69-.91.86-1.54h1.01c-.6 1.73-1.35 2.9-2.28 3.53-.93.61-1.85.91-2.76.91zm6.76 0c-.77 0-1.42-.14-1.95-.43a3.02 3.02 0 01-1.56-2.64c0-.53.13-.98.39-1.37.24-.4.53-.68.89-.86a31.17 31.17 0 001.63-3.38c.46-1.16.9-2.4 1.32-3.72l3.55-.48c.08 2.04.22 4.26.4 6.64.09.96.13 1.66.13 2.1 0 .97-.25 1.77-.75 2.4a4.17 4.17 0 01-1.84 1.34 6.2 6.2 0 01-2.21.4zm-.77-1.9c.6 0 1.09-.17 1.49-.52.4-.35.6-.92.6-1.7 0-.48-.05-1.16-.15-2.02-.16-1.82-.26-3.05-.3-3.67a27.77 27.77 0 01-1.95 4.53c.37.2.55.48.55.84 0 .3-.1.58-.31.82a.91.91 0 01-.75.36c-.33 0-.55-.1-.64-.31 0 .57.1 1 .33 1.27.24.27.62.4 1.13.4z" fill="#5282F0"/>
  <defs>
    <clipPath id="clip0">
    <path fill="#fff" transform="rotate(-180 15 15)" d="M0 0h30v30H0z"/>
    </clipPath>
  </defs>
</svg>
